HIERARCHY
ROOT Hips
{
	OFFSET 53.088200 -36.769417 95.272491
	CHANNELS 6 Xposition Yposition Zposition Xrotation Yrotation Zrotation
	JOINT spine
	{
		OFFSET 0.000000 -0.458069 7.965683
		CHANNELS 3 Xrotation Yrotation Zrotation
		JOINT spine1
		{
			OFFSET 0.000000 -0.000004 10.243103
			CHANNELS 3 Xrotation Yrotation Zrotation
			JOINT spine2
			{
				OFFSET 0.000000 0.000000 9.814751
				CHANNELS 3 Xrotation Yrotation Zrotation
				JOINT Neck
				{
					OFFSET 0.000000 -1.201385 25.198601
					CHANNELS 3 Xrotation Yrotation Zrotation
					JOINT Head
					{
						OFFSET 0.000000 -0.000004 7.613144
						CHANNELS 3 Xrotation Yrotation Zrotation
						End Site
						{
							OFFSET 0.000000 6.077332 18.428101
						}
					}
				}
				JOINT RightShoulder
				{
					OFFSET -4.132702 0.575447 10.599205
					CHANNELS 3 Xrotation Yrotation Zrotation
					JOINT RightArm
					{
						OFFSET 0.000000 0.000000 13.901794
						CHANNELS 3 Xrotation Yrotation Zrotation
						JOINT RightArmRoll
						{
							OFFSET 0.000000 -0.000004 7.017883
							CHANNELS 3 Xrotation Yrotation Zrotation
							JOINT RightForeArm
							{
								OFFSET 0.000000 0.000000 20.440598
								CHANNELS 3 Xrotation Yrotation Zrotation
								JOINT RightForeArmRoll
								{
									OFFSET 0.000000 -0.000004 7.875153
									CHANNELS 3 Xrotation Yrotation Zrotation
									JOINT RightHand
									{
										OFFSET 0.000000 0.000000 15.803696
										CHANNELS 3 Xrotation Yrotation Zrotation
										End Site
										{
											OFFSET 0.000000 -0.000004 0.100006
										}
									}
								}
							}
						}
					}
				}
				JOINT LeftShoulder
				{
					OFFSET 4.132702 0.575447 10.599205
					CHANNELS 3 Xrotation Yrotation Zrotation
					JOINT LeftArm
					{
						OFFSET 0.000000 0.000000 13.901794
						CHANNELS 3 Xrotation Yrotation Zrotation
						JOINT LeftArmRoll
						{
							OFFSET 0.000000 -0.000004 7.017883
							CHANNELS 3 Xrotation Yrotation Zrotation
							JOINT LeftForeArm
							{
								OFFSET 0.000000 0.000000 20.440598
								CHANNELS 3 Xrotation Yrotation Zrotation
								JOINT LeftForeArmRoll
								{
									OFFSET 0.000000 -0.000004 7.875153
									CHANNELS 3 Xrotation Yrotation Zrotation
									JOINT LeftHand
									{
										OFFSET 0.000000 0.000000 15.803696
										CHANNELS 3 Xrotation Yrotation Zrotation
										End Site
										{
											OFFSET 0.000000 -0.000004 0.100006
										}
									}
								}
							}
						}
					}
				}
			}
		}
	}
	JOINT RightUpLeg
	{
		OFFSET -7.060482 1.086102 -1.294701
		CHANNELS 3 Xrotation Yrotation Zrotation
		JOINT RightUpLegRoll
		{
			OFFSET 0.000000 -0.000004 18.530800
			CHANNELS 3 Xrotation Yrotation Zrotation
			JOINT RightLeg
			{
				OFFSET 0.000000 0.000004 -22.947601
				CHANNELS 3 Xrotation Yrotation Zrotation
				JOINT RightLegRoll
				{
					OFFSET 0.000000 -0.000004 23.022598
					CHANNELS 3 Xrotation Yrotation Zrotation
					JOINT RightFoot
					{
						OFFSET 0.000000 -0.000004 19.162506
						CHANNELS 3 Xrotation Yrotation Zrotation
						JOINT RightToeBase
						{
							OFFSET 0.000000 0.000000 16.018799
							CHANNELS 3 Xrotation Yrotation Zrotation
							End Site
							{
								OFFSET 0.006790 0.894203 7.757812
							}
						}
					}
				}
			}
		}
	}
	JOINT LeftUpLeg
	{
		OFFSET 7.060482 1.086102 -1.294701
		CHANNELS 3 Xrotation Yrotation Zrotation
		JOINT LeftUpLegRoll
		{
			OFFSET 0.000000 -0.000004 18.530899
			CHANNELS 3 Xrotation Yrotation Zrotation
			JOINT LeftLeg
			{
				OFFSET 0.000000 -0.000004 22.947502
				CHANNELS 3 Xrotation Yrotation Zrotation
				JOINT LeftLegRoll
				{
					OFFSET 0.000000 -0.000004 23.235504
					CHANNELS 3 Xrotation Yrotation Zrotation
					JOINT LeftFoot
					{
						OFFSET 0.000000 -0.000004 18.949600
						CHANNELS 3 Xrotation Yrotation Zrotation
						JOINT LeftToeBase
						{
							OFFSET 0.000000 0.000000 16.018799
							CHANNELS 3 Xrotation Yrotation Zrotation
							End Site
							{
								OFFSET -0.030430 0.894203 7.757812
							}
						}
					}
				}
			}
		}
	}
}
MOTION
Frames: 4
Frame Time: 0.041667
52.308098 -11.821714 95.502892 -2.819761 1.246569 2.802893 -1.550710 -0.413900 -0.012831 0.901285 -0.821770 -0.032769 2.546422 -0.822151 -0.022891 20.182219 0.260976 -1.607408 -0.235776 -0.797360 -1.530491 -2.464760 -67.028055 -3.767825 -52.357334 -109.064427 -31.773275 -0.000003 0.000003 -0.000002 7.746645 -6.383966 0.175214 -0.000003 0.000026 -3.003539 -5.000218 -7.999162 -0.000208 -1.360013 66.531008 2.471672 -43.559624 112.208527 25.348041 -0.000003 -0.000003 -0.000007 7.926873 5.670251 -0.579527 -0.000002 -0.000006 3.005440 -5.000198 7.999282 0.000205 3.757043 -176.850769 -2.025615 -179.999991 0.000005 -1.225003 173.872820 -2.520543 -0.659491 -0.000000 0.000001 0.128429 70.579425 6.922733 1.911704 25.886856 -7.346896 0.639179 1.695541 172.642197 -0.894719 -0.000005 -0.000005 -1.215361 -10.425087 1.898783 0.453049 0.000002 0.000002 -0.314047 73.377153 -6.856663 -1.877847 25.563305 7.347043 -0.148171 
52.311596 -11.811911 95.499992 -2.812528 1.248025 2.802557 -1.551511 -0.415049 -0.012860 0.899667 -0.824478 -0.032855 2.544804 -0.824857 -0.022947 20.169950 0.278777 -1.611043 -0.227195 -0.805582 -1.532934 -2.496007 -67.008261 -3.801037 -52.283066 -109.104936 -31.671498 -0.000003 0.000004 -0.000000 7.704303 -6.338728 0.173792 -0.000003 0.000026 -3.003539 -5.000215 -7.999162 -0.000206 -1.352300 66.558971 2.465988 -43.638772 112.232343 25.400043 -0.000000 -0.000002 -0.000005 7.853648 5.637820 -0.574865 -0.000003 -0.000006 3.005443 -5.000200 7.999282 0.000204 3.752973 -176.851752 -2.028353 -179.999991 0.000005 -1.225003 173.873762 -2.519542 -0.659342 0.000000 0.000001 0.128430 70.581358 6.922780 1.911693 25.886755 -7.346903 0.639136 1.689537 172.641173 -0.894781 -0.000005 -0.000005 -1.215231 -10.429288 1.898778 0.453251 0.000001 0.000002 -0.314030 73.381497 -6.856666 -1.877881 25.563807 7.347050 -0.149633 
52.315895 -11.828907 95.502090 -2.805559 1.249391 2.802172 -1.552261 -0.416270 -0.012792 0.898178 -0.827350 -0.032747 2.543315 -0.827723 -0.022806 20.156781 0.298400 -1.614893 -0.217593 -0.815256 -1.535436 -2.529005 -66.986124 -3.835991 -52.202296 -109.147318 -31.563096 -0.000001 0.000004 -0.000002 7.662125 -6.292396 0.172493 -0.000002 0.000025 -3.003543 -5.000218 -7.999162 -0.000206 -1.344296 66.588156 2.460137 -43.719846 112.255600 25.454554 -0.000002 -0.000003 -0.000009 7.781385 5.606057 -0.570413 -0.000002 -0.000006 3.005441 -5.000200 7.999281 0.000206 3.749290 -176.853733 -2.031106 -179.999991 0.000005 -1.225003 173.874992 -2.518556 -0.660178 -0.000000 0.000001 0.128429 70.583271 6.922765 1.911771 25.886651 -7.346901 0.639049 1.684029 172.639137 -0.894822 -0.000005 -0.000004 -1.215111 -10.433189 1.898724 0.453447 0.000002 0.000002 -0.313988 73.385731 -6.856674 -1.877923 25.564415 7.347050 -0.151148 
52.306995 -11.846611 95.501892 -2.798777 1.250687 2.801747 -1.552959 -0.417545 -0.012655 0.896779 -0.830336 -0.032502 2.541917 -0.830703 -0.022529 20.142923 0.319299 -1.618907 -0.207279 -0.825951 -1.537958 -2.563193 -66.962259 -3.872141 -52.117202 -109.190881 -31.450289 -0.000004 0.000004 -0.000001 7.620079 -6.245295 0.171307 -0.000003 0.000026 -3.003540 -5.000218 -7.999162 -0.000207 -1.336091 66.618428 2.454157 -43.802843 112.278317 25.511417 -0.000001 -0.000003 -0.000009 7.709804 5.574762 -0.566129 -0.000002 -0.000006 3.005441 -5.000197 7.999283 0.000203 3.745905 -176.854717 -2.033767 -179.999991 0.000005 -1.225003 173.876344 -2.517571 -0.660012 -0.000000 0.000001 0.128430 70.585176 6.922745 1.911749 25.886552 -7.346896 0.638941 1.678871 172.638127 -0.894802 -0.000005 -0.000004 -1.214981 -10.436792 1.898633 0.453636 0.000001 0.000002 -0.313932 73.389952 -6.856656 -1.877862 25.565019 7.347050 -0.152692 
